HIERARCHY
ROOT Hips
{
	OFFSET 0.000000 0.000000 0.000000 
	CHANNELS 6 Xposition Yposition Zposition Yrotation Zrotation Xrotation 
	JOINT Lumbar
	{
		OFFSET 0.000000 0.000000 0.000000 
		CHANNELS 3 Zrotation Xrotation Yrotation
		JOINT Neck
		{
			OFFSET 0.000000 0.445665 0.000000 
			CHANNELS 3 Zrotation Xrotation Yrotation
			End Site
			{
				OFFSET 0.000000 0.227535 0.000000 
			}
		}
		JOINT RightShoulder
		{
			OFFSET 0.019635 0.377685 0.194865 
			CHANNELS 3 Zrotation Xrotation Yrotation
			JOINT RightElbow
			{
				OFFSET 0.000000 -0.243375 0.000000 
				CHANNELS 2 Zrotation Yrotation
				JOINT RightWrist
				{
					OFFSET 0.000000 -0.264825 0.000000 
					CHANNELS 2 Zrotation Xrotation
					End Site
					{
						OFFSET 0.006600 -0.176220 0.000990 
					}
				}
			}
		}
		JOINT LeftShoulder
		{
			OFFSET 0.019635 0.377685 -0.194865 
			CHANNELS 3 Zrotation Xrotation Yrotation
			JOINT LeftElbow
			{
				OFFSET 0.000000 -0.243375 0.000000 
				CHANNELS 2 Zrotation Yrotation
				JOINT LeftWrist
				{
					OFFSET 0.000000 -0.264825 0.000000 
					CHANNELS 2 Zrotation Xrotation
					End Site
					{
						OFFSET 0.006600 -0.176220 -0.000990 
					}
				}
			}
		}
	}
	JOINT RightHip
	{
		OFFSET 0.052140 -0.069960 0.075570 
		CHANNELS 3 Zrotation Xrotation Yrotation
		JOINT RightKnee
		{
			OFFSET 0.000000 -0.402270 0.000000 
			CHANNELS 1 Zrotation
			JOINT RightAnkle
			{
				OFFSET 0.000000 -0.404085 0.000000 
				CHANNELS 3 Zrotation Xrotation Yrotation
				End Site
				{
					OFFSET 0.204105 -0.089430 0.008415 
				}
			}
		}
	}
	JOINT LeftHip
	{
		OFFSET 0.052140 -0.069960 -0.075570 
		CHANNELS 3 Zrotation Xrotation Yrotation
		JOINT LeftKnee
		{
			OFFSET 0.000000 -0.402270 0.000000 
			CHANNELS 1 Zrotation
			JOINT LeftAnkle
			{
				OFFSET 0.000000 -0.404085 0.000000 
				CHANNELS 3 Zrotation Xrotation Yrotation
				End Site
				{
					OFFSET 0.204105 -0.089430 -0.008415 
				}
			}
		}
	}
}
MOTION
Frames: 29
Frame Time: 0.02
-0 0.95578 -0 181.17928 0 -5.08125 3.18967 5.04537 -1.37742 -37.27472 2.98218 2.59456 -44.13901 -69.80881 -82.86878 14.80802 40.58213 -48.30482 0.55484 3.03834 72.3809 82.92591 19.38506 -73.42126 -32.53447 2.73444 -3.13124 6.16892 -1.33223 -8.50244 -0.65236 -4.54033 -10.29791 -2.40377 7.52906 -0.71146 -7.37309 4.88533 5.81515 8.94649
0.00017 0.95577 0.00022 181.16066 0 -5.08757 3.19754 5.06202 -1.36473 -37.28699 2.98011 2.60602 -43.71128 -69.83556 -82.89752 14.88514 40.6394 -48.04645 0.55932 2.74657 72.16305 82.99864 19.34358 -72.99971 -32.29536 2.67362 -3.11827 6.16219 -1.30961 -8.50234 -0.65599 -4.53974 -10.30699 -2.39773 7.51967 -0.75499 -7.3732 4.88171 5.81102 8.9941
0.00035 0.95577 0.00044 181.14219 0 -5.09382 3.2056 5.07848 -1.35201 -37.29939 2.97802 2.61747 -43.28436 -69.86193 -82.9261 14.96197 40.69548 -47.78914 0.56395 2.45754 71.94595 83.07078 19.30238 -72.58071 -32.05649 2.61316 -3.1054 6.15544 -1.28712 -8.50221 -0.65957 -4.53915 -10.31607 -2.39174 7.51026 -0.79819 -7.37325 4.87815 5.80695 9.04132
0.00052 0.95576 0.00067 181.12397 0 -5.09991 3.2144 5.0944 -1.33911 -37.3123 2.97589 2.62905 -42.85704 -69.8873 -82.95424 15.03819 40.74743 -47.53392 0.56919 2.17567 71.72964 83.14124 19.2619 -72.16665 -31.8164 2.55357 -3.09302 6.14862 -1.2648 -8.50164 -0.66302 -4.53864 -10.32529 -2.38619 7.5008 -0.84033 -7.37272 4.87477 5.80305 9.08749
0.00071 0.95575 0.00089 181.10418 0 -5.10694 3.21915 5.11329 -1.32722 -37.32237 2.97402 2.64004 -42.43248 -69.91828 -82.98464 15.11734 40.82132 -47.26809 0.57119 1.85469 71.50906 83.22053 19.21759 -71.72499 -31.58296 2.48938 -3.07827 6.14228 -1.24143 -8.50305 -0.66716 -4.53778 -10.33383 -2.37862 7.49172 -0.88793 -7.37484 4.87042 5.79824 9.1393
0.00086 0.95574 0.00111 181.0879 0 -5.11193 3.23258 5.12581 -1.31317 -37.33852 2.97156 2.65219 -42.00206 -69.93716 -83.01028 15.19042 40.84871 -47.02466 0.58005 1.61759 71.2978 83.2811 19.18145 -71.34314 -31.33555 2.43499 -3.06839 6.13486 -1.22041 -8.50052 -0.66983 -4.53764 -10.34375 -2.37513 7.48179 -0.92402 -7.37167 4.86814 5.79535 9.17908
0.00091 0.95571 0.00131 181.07999 0 -5.11132 3.27016 5.12082 -1.29281 -37.37203 2.96779 2.66883 -41.54628 -69.92359 -83.02259 15.24659 40.74389 -46.84091 0.60853 1.60798 71.10672 83.28956 19.16765 -71.11402 -31.04207 2.40732 -3.07333 6.12464 -1.20446 -8.48448 -0.66862 -4.53957 -10.35835 -2.38504 7.4696 -0.92739 -7.35071 4.87142 5.79785 9.18598
0.00092 0.95568 0.00151 181.07586 0 -5.10863 3.31648 5.10937 -1.27032 -37.41177 2.96335 2.68646 -41.08552 -69.89763 -83.03016 15.29678 40.59283 -46.67992 0.64382 1.68438 70.92588 83.27921 19.16217 -70.94763 -30.73539 2.38968 -3.08287 6.11329 -1.19105 -8.46497 -0.66589 -4.54221 -10.37424 -2.39868 7.45653 -0.91932 -7.32497 4.87681 5.80228 9.1807
0.00096 0.95565 0.00171 181.07086 0 -5.10685 3.35877 5.10082 -1.24902 -37.44813 2.95901 2.70282 -40.63274 -69.87665 -83.03999 15.3498 40.46507 -46.50974 0.6756 1.72344 70.74371 83.2777 19.15296 -70.75996 -30.43941 2.36755 -3.08946 6.10233 -1.17744 -8.44869 -0.66374 -4.54445 -10.38894 -2.40928 7.44378 -0.91706 -7.3035 4.88134 5.80578 9.18076
0.00098 0.95562 0.00191 181.06233 0 -5.10521 3.40145 5.09244 -1.22676 -37.48618 2.95554 2.72259 -40.15689 -69.85827 -83.04926 15.40211 40.32715 -46.33489 0.7092 1.75286 70.54747 83.2749 19.14336 -70.54054 -30.12418 2.3448 -3.09988 6.09189 -1.16004 -8.42528 -0.6621 -4.54696 -10.406 -2.42565 7.43134 -0.91215 -7.27325 4.88547 5.80948 9.18156
0.00102 0.95559 0.00211 181.06198 0 -5.10278 3.44521 5.08214 -1.206 -37.523 2.95007 2.73556 -39.72667 -69.83171 -83.05873 15.45475 40.20009 -46.17498 0.74054 1.82566 70.38303 83.27037 19.13676 -70.40377 -29.84524 2.32612 -3.10318 6.08011 -1.15085 -8.41612 -0.65901 -4.54915 -10.41867 -2.43079 7.41806 -0.91012 -7.26009 4.89089 5.81323 9.17803
0.00108 0.95558 0.00233 181.08394 0 -5.09879 3.49109 5.06841 -1.18988 -37.54801 2.93947 2.72875 -39.43139 -69.78378 -83.06902 15.50832 40.10964 -46.0517 0.76464 1.97371 70.30273 83.26544 19.13488 -70.46795 -29.67524 2.31314 -3.0877 6.06484 -1.16608 -8.44527 -0.65246 -4.54986 -10.41709 -2.40465 7.40268 -0.91814 -7.29569 4.89969 5.81674 9.16475
0.00115 0.95558 0.00254 181.11388 0 -5.09407 3.53737 5.05291 -1.1754 -37.57293 2.9268 2.71518 -39.17898 -69.72813 -83.0801 15.56331 40.0334 -45.94219 0.78603 2.16755 70.25389 83.25958 19.1362 -70.61678 -29.54123 2.30467 -3.06446 6.04828 -1.18902 -8.48923 -0.64449 -4.55034 -10.41141 -2.3669 7.38649 -0.92957 -7.34859 4.90965 5.8202 9.14768
0.00123 0.95558 0.00276 181.13973 0 -5.08962 3.58279 5.03799 -1.1601 -37.60227 2.91493 2.70526 -38.90409 -69.67749 -83.09109 15.61783 39.95267 -45.82613 0.80838 2.35492 70.19193 83.25411 19.13679 -70.73288 -29.38707 2.29594 -3.04349 6.03238 -1.2069 -8.5277 -0.63704 -4.5512 -10.40878 -2.33412 7.37066 -0.93987 -7.3933 4.9189 5.82361 9.13287
0.00126 0.95557 0.00298 181.16765 0 -5.08535 3.63198 5.02377 -1.14479 -37.61295 2.90375 2.69307 -38.64895 -69.62111 -83.09974 15.66891 39.85868 -45.71329 0.83252 2.48182 70.12701 83.24756 19.1338 -70.82112 -29.24827 2.27925 -3.02818 6.01614 -1.23152 -8.5609 -0.63003 -4.55087 -10.40109 -2.303 7.35484 -0.94798 -7.4392 4.92905 5.82742 9.11537
0.00139 0.95557 0.00319 181.19314 0 -5.08058 3.67257 5.00778 -1.13021 -37.66287 2.89051 2.68379 -38.35382 -69.57372 -83.11483 15.73068 39.80048 -45.5952 0.85166 2.74812 70.07349 83.24399 19.13993 -70.99396 -29.08648 2.28102 -2.99894 6.00031 -1.24382 -8.60855 -0.62186 -4.553 -10.40307 -2.26531 7.33882 -0.96163 -7.48682 4.93748 5.83034 9.10271
0.00176 0.95556 0.00336 181.20966 0 -5.07452 3.69494 4.98715 -1.11462 -37.81729 2.87316 2.68611 -38.00903 -69.56278 -83.13711 15.79479 39.80968 -45.46873 0.86153 3.35697 70.06034 83.23908 19.16145 -71.31479 -28.85013 2.32462 -2.93488 5.98585 -1.2209 -8.69318 -0.60999 -4.56155 -10.43173 -2.2147 7.32248 -0.98953 -7.53472 4.94169 5.83089 9.10454
0.00224 0.95556 0.00353 181.2235 0 -5.06805 3.7072 4.96491 -1.1001 -38.01195 2.85362 2.69125 -37.60469 -69.55838 -83.16834 15.87448 39.86514 -45.33224 0.86517 4.11047 70.05352 83.23637 19.19341 -71.72796 -28.58993 2.38813 -2.8566 5.97186 -1.18518 -8.79178 -0.59713 -4.57263 -10.47045 -2.15728 7.30598 -1.02291 -7.58388 4.944 5.8305 9.11131
0.00268 0.95556 0.0037 181.23878 0 -5.06183 3.72078 4.94354 -1.08693 -38.19064 2.8344 2.69383 -37.18671 -69.54601 -83.2017 15.9649 39.91131 -45.19698 0.86975 4.81704 70.03402 83.24272 19.22675 -72.14324 -28.34217 2.44767 -2.78384 5.9577 -1.15481 -8.88345 -0.5853 -4.58288 -10.50525 -2.10154 7.2895 -1.05405 -7.63261 4.94657 5.8305 9.11586
0.00303 0.95555 0.00387 181.25342 0 -5.05523 3.74961 4.9214 -1.06648 -38.35936 2.81797 2.70149 -36.96075 -69.55875 -83.20684 15.98089 39.88678 -45.08594 0.88443 5.44356 70.06073 83.21797 19.23539 -72.38235 -28.08878 2.48576 -2.71533 5.94329 -1.12661 -8.97787 -0.57106 -4.59191 -10.53721 -2.05187 7.2731 -1.08455 -7.68117 4.95157 5.83073 9.12051
0.00362 0.95555 0.00405 181.26863 0 -5.04942 3.7425 4.90064 -1.06092 -38.55864 2.79522 2.69943 -36.29672 -69.51548 -83.27547 16.15469 40.04747 -44.90976 0.87386 6.27346 69.98762 83.24421 19.2966 -73.00052 -27.84114 2.57343 -2.634 5.92958 -1.09084 -9.06998 -0.5615 -4.60393 -10.57746 -1.98746 7.25663 -1.11726 -7.73036 4.95124 5.83016 9.12575
0.00475 0.95556 0.00424 181.2861 0 -5.04511 3.65302 4.8831 -1.10037 -38.83059 2.75556 2.66907 -34.64257 -69.36036 -83.48804 16.76636 40.47038 -44.66107 0.81899 7.60555 69.67525 83.53195 19.51091 -74.71914 -27.61176 2.79078 -2.52628 5.9171 -1.03635 -9.14994 -0.56614 -4.62499 -10.63883 -1.88918 7.23904 -1.15781 -7.77932 4.93499 5.82835 9.13504
0.00613 0.95556 0.00443 181.30421 0 -5.04174 3.52462 4.86718 -1.15392 -39.13239 2.70965 2.62904 -32.51496 -69.13947 -83.76477 17.53376 41.11834 -44.32849 0.73473 9.1422 69.2538 83.84745 19.77519 -76.8028 -27.38814 3.05751 -2.40495 5.90541 -0.97479 -9.22764 -0.57527 -4.64877 -10.7082 -1.77514 7.22156 -1.19974 -7.82931 4.91382 5.8256 9.14399
0.00745 0.95557 0.00462 181.3219 0 -5.03847 3.40512 4.85119 -1.19836 -39.42158 2.66659 2.59396 -30.46456 -68.92079 -84.03746 18.22784 41.82449 -43.96422 0.64796 10.59989 68.85878 84.07182 20.01049 -78.66697 -27.16561 3.30347 -2.28648 5.89375 -0.91707 -9.30761 -0.58173 -4.67033 -10.77336 -1.6653 7.20469 -1.2391 -7.87949 4.89592 5.82285 9.15089
0.00856 0.95559 0.00481 181.33986 0 -5.03301 3.32404 4.83239 -1.25451 -39.70758 2.62329 2.55655 -28.97871 -68.82301 -84.22444 18.93916 41.87175 -43.89035 0.62695 12.00093 68.56655 84.63123 20.27514 -80.75472 -26.93196 3.5441 -2.18232 5.88051 -0.85639 -9.38209 -0.59105 -4.69592 -10.84085 -1.56875 7.18506 -1.28712 -7.92596 4.87336 5.822 9.16775
0.01015 0.95557 0.00501 181.35766 0 -5.03228 3.15172 4.8198 -1.28927 -40.00746 2.57916 2.52176 -26.22517 -68.45293 -84.57996 19.64388 43.32298 -43.19686 0.46336 13.56995 68.02812 84.49498 20.48723 -82.46976 -26.71644 3.80602 -2.04432 5.87069 -0.80019 -9.46823 -0.5952 -4.71397 -10.90581 -1.4396 7.17115 -1.31701 -7.98164 4.85967 5.8168 9.16312
0.01292 0.95542 0.0052 181.3732 0 -5.04497 2.75415 4.82435 -1.26433 -40.33233 2.53338 2.49594 -19.91654 -67.38677 -85.59922 20.35622 48.77584 -40.7688 -0.09788 15.52268 66.88765 82.46407 20.56894 -82.99781 -26.60576 4.12641 -1.82457 5.87051 -0.75949 -9.5795 -0.5867 -4.70841 -10.95709 -1.23495 7.17359 -1.29946 -8.05178 4.86876 5.80141 9.10433
0.01617 0.95522 0.0054 181.38887 0 -5.06224 2.26245 4.83501 -1.21686 -40.67092 2.48714 2.47328 -12.38109 -66.04087 -86.74533 21.04463 55.59772 -37.72814 -0.7995 17.64138 65.49307 79.72349 20.591 -83.14814 -26.50194 4.46482 -1.56953 5.87365 -0.72326 -9.70429 -0.57242 -4.69553 -11.00644 -0.99599 7.18164 -1.26306 -8.13316 4.88735 5.78138 9.02298
0.01924 0.95504 0.0056 181.40558 0 -5.07704 1.80322 4.84263 -1.17785 -41.00717 2.44173 2.44951 -5.51869 -64.79758 -87.69362 21.70181 61.67758 -34.9972 -1.42947 19.70425 64.18198 77.28914 20.62255 -83.51879 -26.35925 4.78639 -1.32556 5.875 -0.68425 -9.82742 -0.55893 -4.6874 -11.05965 -0.76586 7.18677 -1.23329 -8.21639 4.90375 5.76242 8.94854
